<svg viewBox="0 0 1366 1366" xmlns="http://www.w3.org/2000/svg" id="图层_1"><defs><style>.cls-1{fill:#eff0f9;}.cls-2{fill:#fff;}.cls-3{fill-rule:evenodd;}.cls-4{fill:#2936ff;}</style></defs><path d="M1075.81,683q0,9.62-.47,19.23t-1.42,19.18q-.95,9.57-2.36,19.09t-3.29,19q-1.89,9.43-4.23,18.77t-5.14,18.53q-2.81,9.21-6.05,18.27T1045.91,833q-3.69,8.89-7.81,17.59t-8.67,17.18q-4.54,8.47-9.5,16.73t-10.32,16.25q-5.36,8-11.1,15.73T986.65,931.6q-6.12,7.44-12.59,14.56t-13.3,13.93q-6.81,6.81-14,13.27t-14.6,12.56Q924.75,992,917,997.75t-15.76,11.08q-8,5.34-16.29,10.29t-16.78,9.48q-8.5,4.53-17.22,8.64t-17.63,7.8q-8.91,3.69-18,6.92T797,1058q-9.22,2.8-18.58,5.14t-18.82,4.21q-9.45,1.88-19,3.29T721.5,1073q-9.6.94-19.23,1.42t-19.27.47q-9.64,0-19.27-.47T644.5,1073q-9.6-.93-19.14-2.35t-19-3.29q-9.47-1.87-18.82-4.21T569,1058q-9.22-2.79-18.31-6t-18-6.92q-8.91-3.68-17.63-7.8t-17.22-8.64q-8.5-4.55-16.78-9.48t-16.29-10.29q-8-5.36-15.76-11.08t-15.2-11.83q-7.46-6.1-14.6-12.56t-14-13.27q-6.83-6.8-13.3-13.93T379.35,931.6q-6.12-7.44-11.86-15.16t-11.1-15.73q-5.37-8-10.32-16.25t-9.5-16.73q-4.54-8.49-8.67-17.18T320.09,833q-3.69-8.88-6.94-17.94t-6-18.27q-2.81-9.19-5.14-18.53t-4.23-18.77q-1.87-9.44-3.29-19t-2.36-19.09q-.94-9.57-1.42-19.18T290.19,683q0-9.62.47-19.23t1.42-19.18q.94-9.57,2.36-19.09t3.29-19q1.89-9.43,4.23-18.77t5.14-18.53q2.81-9.21,6-18.27T320.09,533q3.69-8.89,7.81-17.59t8.67-17.18q4.55-8.47,9.5-16.73t10.32-16.25q5.36-8,11.1-15.73t11.86-15.16q6.12-7.44,12.59-14.56t13.3-13.93q6.81-6.81,14-13.27t14.6-12.56q7.45-6.1,15.2-11.83t15.76-11.08q8-5.34,16.29-10.29t16.78-9.48q8.51-4.53,17.22-8.65T532.68,321q8.91-3.68,18-6.92T569,308q9.22-2.79,18.58-5.13t18.82-4.21q9.45-1.87,19-3.29T644.5,293q9.6-.94,19.23-1.42t19.27-.47q9.64,0,19.27.47T721.5,293q9.6.94,19.14,2.35t19,3.29q9.47,1.88,18.82,4.21T797,308q9.22,2.81,18.31,6t18,6.92q8.91,3.68,17.63,7.79t17.22,8.65q8.51,4.55,16.78,9.48t16.29,10.29q8,5.35,15.76,11.08t15.2,11.83q7.45,6.1,14.6,12.56t14,13.27q6.82,6.79,13.3,13.93t12.59,14.56q6.12,7.44,11.86,15.16t11.1,15.73q5.37,8,10.32,16.25t9.5,16.73q4.54,8.49,8.67,17.18t7.81,17.59q3.71,8.88,6.94,17.94t6.05,18.27q2.8,9.19,5.14,18.53t4.23,18.77q1.88,9.44,3.29,19t2.36,19.09q.94,9.57,1.42,19.18T1075.81,683Z" class="cls-1"></path><path d="M327,462H454.47A24.52,24.52,0,0,1,479,486.49V766.06h31.67v96H479v74.32a12.25,12.25,0,0,1-12.27,12.24H389.1V862h-191ZM389.1,766.06V558.59L325.85,766.06Z" class="cls-2"></path><path d="M479,766.06V486.49A24.52,24.52,0,0,0,454.47,462H327l-127,393.92-2,6.12h191v86.56h77.65A12.25,12.25,0,0,0,479,936.35V862h31.67v-96Zm25.53,6.13H479a6.12,6.12,0,0,1-6.13-6.13V486.49a18.4,18.4,0,0,0-18.42-18.37h-123l-125,387.79H389.1a6.13,6.13,0,0,1,6.14,6.12v80.44h71.51a6.13,6.13,0,0,0,6.14-6.12V862a6.12,6.12,0,0,1,6.13-6.12h25.53Zm-115.45,0a6.13,6.13,0,0,0,6.14-6.13V558.59a6.14,6.14,0,0,0-12-1.78L320,764.28a6.14,6.14,0,0,0,5.87,7.91Zm-56.83-6.13h-6.42l1.87-6.12L383,578.72l6.14-20.13V766.06H332.27Z" class="cls-3"></path><path d="M984.24,462h127.43a24.52,24.52,0,0,1,24.55,24.5V766.06h31.66v96h-31.66v74.32a12.26,12.26,0,0,1-12.28,12.24H1046.3V862h-191Zm62.06,304.07V558.59L983.05,766.06Z" class="cls-2"></path><path d="M1136.22,766.06V486.49a24.52,24.52,0,0,0-24.55-24.5H984.24l-127,393.92-2,6.12h191v86.56h77.64a12.26,12.26,0,0,0,12.28-12.24V862h31.66v-96Zm25.52,6.13h-25.52a6.13,6.13,0,0,1-6.14-6.13V486.49a18.39,18.39,0,0,0-18.41-18.37h-123l-125,387.79H1046.3a6.12,6.12,0,0,1,6.13,6.12v80.44h71.51a6.13,6.13,0,0,0,6.14-6.12V862a6.13,6.13,0,0,1,6.14-6.12h25.52Zm-115.44,0a6.12,6.12,0,0,0,6.13-6.13V558.59a6.14,6.14,0,0,0-12-1.78L977.17,764.28a6.13,6.13,0,0,0,4.09,7.64,6,6,0,0,0,1.79.27Zm-56.84-6.13h-6.41l1.86-6.12,55.25-181.22,6.14-20.13V766.06H989.46Z" class="cls-3"></path><path d="M630.42,725.69l118.3,91.78V686.35l-118.3-91.79Z" class="cls-4"></path><path d="M630.42,725.69V594.56l118.3,91.79V817.47l-6.14-4.76ZM742.58,805V689.34l-106-82.26V722.69Z" class="cls-3"></path><path d="M846.75,943.83H533.29V450.33H846.75Zm-209-396.91V847.23H742.26V546.92Z" class="cls-2"></path><path d="M846.75,943.83H533.29V450.33H846.75Zm-6.14-6.13H539.43V456.45H840.61ZM637.78,540.8a6.13,6.13,0,0,0-6.14,6.12V847.23a6.13,6.13,0,0,0,6.14,6.12H742.26a6.13,6.13,0,0,0,6.14-6.12V546.92a6.13,6.13,0,0,0-6.14-6.12Zm0,6.12H742.26V847.23H637.78V546.92Z" class="cls-3"></path></svg>