<svg xmlns="http://www.w3.org/2000/svg" viewBox="0 0 142.89 122.48"><defs><style>.cls-1{isolation:isolate;}.cls-2{fill:#f89945;}.cls-3{fill:#d77124;}.cls-4{fill:#cd4200;}.cls-13,.cls-4{opacity:0.55;}.cls-5{fill:#be5b2a;}.cls-6{fill:#ae4d25;}.cls-7{fill:#953e25;}.cls-8{fill:#7bb027;}.cls-9{fill:#9fcc29;}.cls-10{fill:#ffcf08;}.cls-11{fill:#efa708;}.cls-12{fill:#e72124;}.cls-13{fill:#c42124;}.cls-13,.cls-17,.cls-18{mix-blend-mode:multiply;}.cls-14{fill:#e8761f;}.cls-15{fill:#fde5c1;mix-blend-mode:screen;}.cls-15,.cls-18{opacity:0.32;}.cls-16{fill:#fbd198;}.cls-17{fill:#d48745;opacity:0.35;}.cls-18{fill:#ba773d;}</style></defs><g class="cls-1"><g id="Layer_2" data-name="Layer 2"><path class="cls-2" d="M28,82.47s1.44,10.92,4.11,13.23,48.27,9,76.89-.32a3.17,3.17,0,0,0,1.9-1.74c1.32-3,4.33-10.32,3.6-13.79C113.62,75.44,95.25,90,28,82.47Z"/><path class="cls-3" d="M41.24,90.49c4,1.6,7-1.53,10.48.05s4.29,2.17,7.12.15c.52-.36,1.29,0,1.79.1,4,1,6.27,1.64,10.95-.05a4.34,4.34,0,0,1,3-.29,12.86,12.86,0,0,0,8.78-1.53,1.22,1.22,0,0,1,.62-.16c2.36,0,3.26,1.43,5.66,1.88,3.66.67,7,1.27,9.13-2.43a2.75,2.75,0,0,1,1.55-1c3.54-1,4.77,2.84,8.31-.7,1.84-1.83,3.42-.21,5,.14.77-2.55,1.29-5.12.94-6.79C113.62,75.44,95.25,90,28,82.47a62.68,62.68,0,0,0,1.83,8.65C33.11,93.7,37.88,89.14,41.24,90.49Z"/><path class="cls-4" d="M84.63,95.51c-4.2-2.38-9.9-6-12.38-10.5a301,301,0,0,1-42-1.62s1.29,8.9,3.69,10.78c1.92,1.51,29.43,5.43,53.47,2.74C86.45,96.48,85.53,96,84.63,95.51Z"/><path class="cls-5" d="M65.29,60.3s-35.61,4.07-37.25,8S27.43,79.88,30.23,82s38.81,2,44.7,2.4c22.64,1.5,36.23-6.58,37.15-6.72s5.86-9.67,0-15.68C106.63,56.4,71.85,60.67,65.29,60.3Z"/><path class="cls-6" d="M75.16,77.42C71.1,75,67,72.37,63.82,68.85a61.11,61.11,0,0,1-5.39-7.68c-7.4,1-19,2.74-25.55,4.69-.21,7.59,2.39,13.79,8.94,17.89,11.94.89,29.22,1.2,33.11.64,1.74-.25,5.66-.93,10.32-1.77A79.92,79.92,0,0,1,75.16,77.42Z"/><path class="cls-7" d="M53.69,67.83c5.83-.17,11.06,1.41,16.75,2.37a92,92,0,0,1,13.84,3c3.64,1.21,11.34,6.71,13.84,2.62,1.9-3.12,5.3-4.52,8.21-6.42a25.58,25.58,0,0,1,8-3.6A9.55,9.55,0,0,0,112.08,62c-5.45-5.59-40.23-1.32-46.79-1.69,0,0-35.61,4.07-37.25,8a10.86,10.86,0,0,0-.73,3.38C35.88,68.81,44.51,68.09,53.69,67.83Z"/><path class="cls-8" d="M28,81.7A39.81,39.81,0,0,1,35.2,79c2.69-.54,10.31,1.93,17.7.62s7,3.24,15.54,1.46,10.93,1.54,13.7.62,10.85-.29,12.62.16,11.17-5.5,14.55-4.78,6.62-2.23,7.39-.85,2.23,4.62-2.46,5.66-6.85,2.73-8.93,1.81-13.39,5.46-14.86,3.61-6.31-1.61-10.54-1-5.85-.77-10.93.31-12.26-1-14.47.16-9.15,2.07-10.92.53-7.7-2.46-9.24-1.61S28.27,82.77,28,81.7Z"/><path class="cls-9" d="M32.56,78.82c0-.13-.12-.21.1-.15A5.06,5.06,0,0,1,33.88,78l0-.13c.58-.17,1.11-.58,1.66-.71,0,0,0-.08,0-.12a31.25,31.25,0,0,0,3.78-.51c1.26.06,3,1,2,2.39-.45.62-1.22.7-1.11,1.67a2.48,2.48,0,0,0,1.32,1.59,14.18,14.18,0,0,0,5.2.22c1.33-.14,4.12-.36,4.2-2.18.12-.52-.69-.85-.8-1.4a1.68,1.68,0,0,1,.81-1.58,8.82,8.82,0,0,0,2.23-.45,14.75,14.75,0,0,0,2.94-.23,21.48,21.48,0,0,1,2.6.23c.54.26,1.11.64,1.66.87.44.5,1.19,1.29.8,2.11-.23.48-.88.53-1.26.82a6.52,6.52,0,0,0-1,1.15,1.86,1.86,0,0,0,.81,1.12,1,1,0,0,1,.46.2c2-.21,4,.55,5.94.14a1,1,0,0,0,.88-.11A4.66,4.66,0,0,0,68.35,83a.68.68,0,0,0,0-.14.45.45,0,0,0,.23,0,.15.15,0,0,0,0-.14c1.27-.55-1.23-1.55-1.58-1.9-1.25-1.22.6-2,1.73-2.15,2.68-.48,6.6-.68,9,1A2,2,0,0,1,76.23,82c-.21.26-.73.62-1,1v.44a2.49,2.49,0,0,0,.67.34c.57.42,1.61.21,2.16.19a1,1,0,0,0,.31,0,3.09,3.09,0,0,0,.86,0,.59.59,0,0,1,0-.14c.41,0,1.16-.23,1.13-.82.77-1.06-1.15-2.89,1.16-3,1.31-.07,3.11.58,4-.67A3.54,3.54,0,0,1,87.91,79c1.28,1.71-.26,2.53-1.39,3.84l-.1.14c0,.18,0,.36,0,.55s.14.13.2.22a.22.22,0,0,0,0-.11,2.67,2.67,0,0,0,2.36.52c1.58.7,2.89-1.82,3.69-2.86a11.07,11.07,0,0,1,1.76-2c.78-.61,1.51-.38,2.22-.76a5.45,5.45,0,0,1,3,1.63c.66.73,1.08,2.19,2.27,1.92,3.78.66,5-5.59,7.89-7a1.61,1.61,0,0,1,2.21.49c.45.7.2,1.59.63,2.26a1.41,1.41,0,0,0,2.06.3c.74-.54.59-1.51,1.1-2.17a2.21,2.21,0,0,1,4,1.35c0,1.38-1.95,4.22-3.19,4.58-.09.68-1.89,2.16-2.66,2.38a2.1,2.1,0,0,1-2.67-2c-.11-1.13.15-2.88-1.07-3.33a2.08,2.08,0,0,0-2.43,1.71,11.29,11.29,0,0,0-.61,2.85,7.71,7.71,0,0,1-1,2.49c-.17.14-.18.14-.23.23-2.3,1.06-4.81-.54-5.62-3-.81-.77-2.24-2.59-2.83-.3a7.78,7.78,0,0,0,0,2.36,16.08,16.08,0,0,0-.14,2.25c-.93,1.55-2,2-4,2.19a11.39,11.39,0,0,1-5.71-1.39c-1.43-.67-2.62-1.14-2.23-2.92.11-.52.55-1.52.28-2.09a1.47,1.47,0,0,0-1.92-.55C82,82.64,82.38,85,82,86.31c-.57,1.85-2.16,2.57-4,2.75-1.29.12-5.35.2-5.29-1.72,0-.84,1.06-1.38,1.19-2.18.15-1-.69-1.68-1.52-2-.64-.29-3.05-.54-2.45.72,0,.41.4.88.52,1.36a10.56,10.56,0,0,0,.2,1.45c-.44.5-.46,1.32-.71,1.82A4,4,0,0,1,68.46,90a2.47,2.47,0,0,0-.46.16c-2.37-.13-4.38-.06-6.59-1.21a6.59,6.59,0,0,1-1.94-1.27c-.56-.77-.15-1.69-.56-2.51-.71-1.38-4-2.16-3.56.18.24,1.15,1.14,1.61,1.11,2.9a2.15,2.15,0,0,1-.93,2.06.09.09,0,0,0,0,.1c-4.25,1.32-2.24-5-5.32-5.55-1-.17-3.22.12-3.83,1-.94,1.35,1.39,2.17.08,3.57a2.1,2.1,0,0,0-.35,0c-1.87.45-4.88-.24-5.53-2.39-.25-.84.4-1.77.06-2.52a3.06,3.06,0,0,0-2-1.19,1.73,1.73,0,0,0-1.81.17c-.8.55-.59,1.05-.17,1.82,1,1.84,1.23,2.9-.08,4.68a6.06,6.06,0,0,1-4.77-.44c-1.09-.76-1.38-2.77-1.79-3.87-.54-.77-2.61-.58-3.39-.41-3.7-.36-4.77-5.78-.47-5.71,1.64,0,3,1.13,4.42,1.93,1.08.61,3.47,1.51,3.79-.49.26-1.57-1.61-1.31-2-2.43C32.58,78.54,32.39,78.94,32.56,78.82Z"/><path class="cls-10" d="M38,57.69S26,61.6,22.35,67.38l1.33,2s19.85-5.19,35.14-3.13,31.95,5.87,36.87,7.89c0,0,10.62-12.94,24.86-12.33V59.38a25.9,25.9,0,0,0-11.5-3.8C102.85,55.27,61.59,61.48,38,57.69Z"/><path class="cls-11" d="M99.2,68.1c-2.34,1.63-4.3,3.11-4.3,3.11-16.14-4-28.23-7.28-39.69-7.28a149.62,149.62,0,0,0-32.86,3.45l1.33,2s19.86-5.19,35.14-3.13,31.95,5.87,36.87,7.89c0,0,10.62-12.94,24.86-12.33V59.38C109,59.84,102.33,65.9,99.2,68.1Z"/><path class="cls-12" d="M109.41,49.58s2,1,2.29,2.64-.27,5.13-1.15,5.77c-1.87,1.38-45.21,6.06-79.1,2.41,0,0-1.1-.56-1.72-7.1,0,0,9.91,3.67,45.33,2.33C103.13,54.57,109.41,49.58,109.41,49.58Z"/><path class="cls-13" d="M72.77,59.2C80,59.13,87.37,58,94.58,57.14c6.43-.75,11.87-1.51,17.08-5a4.27,4.27,0,0,0-2.25-2.52s-6.28,5-34.35,6.05C39.64,57,29.73,53.3,29.73,53.3a33.41,33.41,0,0,0,.82,5.14C44.3,61.45,58.85,59.35,72.77,59.2Z"/><path class="cls-2" d="M70.88,22.29a88.23,88.23,0,0,0-22.46,3.22,48.26,48.26,0,0,0-14.07,6,22.1,22.1,0,0,0-8.57,10.59A13.87,13.87,0,0,0,28,54.4c4.52,6.12,73.39,3.52,83.08-3.47,0,0,3.53-4.17,1.15-10.87-1.25-3.51-4.75-6.8-7.74-8.86a49.27,49.27,0,0,0-15.76-6.82A70,70,0,0,0,70.88,22.29Z"/><path class="cls-14" d="M96.41,46.16c-9.78,3-19.42,2-29.48,2.2-10.35.19-21,1.25-31.24-.71-4.56-.87-8-2.22-10-5.19A14,14,0,0,0,28,54.4c4.52,6.12,73.39,3.52,83.08-3.47,0,0,3.32-4,1.32-10.32C107.66,43.51,102.22,44.4,96.41,46.16Z"/><path class="cls-15" d="M72.57,25.36c-2.2-.68-8.28-1.25-8.9,2.05-.53,2.85,4.87,3.41,6.65,3.49,2,.1,5.22-.35,5.47-2.42C76,26.88,74.4,25.92,72.57,25.36Z"/><path class="cls-15" d="M89.22,32c-5.08-.47-10.73-.14-14.47,3-3,2.57-.08,4.42,2.64,5.26A33.44,33.44,0,0,0,90.61,41.7c2.91-.34,8.19-.94,7.62-4.87a4.49,4.49,0,0,0-2-2.75C94.78,33.1,90.92,32.13,89.22,32Z"/><path class="cls-16" d="M53.23,31.88c.35.69-.34,1.73-1.53,2.33s-2.43.54-2.78-.15.33-1.73,1.52-2.33S52.88,31.19,53.23,31.88Z"/><path class="cls-16" d="M72.85,42.29c.35.69-.33,1.73-1.52,2.33s-2.44.54-2.79-.15.34-1.73,1.53-2.33S72.5,41.6,72.85,42.29Z"/><path class="cls-16" d="M89.17,40.78c.35.69-.34,1.73-1.53,2.34s-2.43.53-2.78-.16.33-1.73,1.52-2.33S88.82,40.09,89.17,40.78Z"/><path class="cls-16" d="M41.68,36.41c.35.69-.33,1.73-1.52,2.34s-2.44.53-2.79-.16.34-1.73,1.53-2.33S41.34,35.72,41.68,36.41Z"/><path class="cls-16" d="M105.1,35.74c.35.69-.34,1.74-1.53,2.34s-2.43.53-2.78-.15.33-1.74,1.52-2.34S104.75,35.06,105.1,35.74Z"/><path class="cls-16" d="M78,38.55c-.34.69-1.58.79-2.78.21s-1.91-1.61-1.58-2.31,1.58-.78,2.78-.2S78.32,37.85,78,38.55Z"/><path class="cls-16" d="M92.33,33.91c.16.75-.77,1.58-2.08,1.85s-2.49-.12-2.64-.87.77-1.59,2.08-1.86S92.18,33.15,92.33,33.91Z"/><path class="cls-16" d="M53.25,43.63c-.33.69-1.58.79-2.78.21s-1.91-1.61-1.57-2.31,1.58-.78,2.78-.21S53.58,42.93,53.25,43.63Z"/><path class="cls-16" d="M64.51,39.14c-.31.59-1.52.56-2.7-.06s-1.89-1.61-1.58-2.2,1.52-.56,2.71.06S64.82,38.55,64.51,39.14Z"/><path class="cls-16" d="M39.1,44.19c-.16.64-1.35.91-2.64.59S34.23,43.67,34.39,43s1.34-.92,2.64-.6S39.26,43.54,39.1,44.19Z"/><path class="cls-16" d="M83.57,29.2c-.33.63-1.53.66-2.67.06S79.11,27.65,79.45,27,81,26.36,82.11,27,83.9,28.57,83.57,29.2Z"/><path class="cls-16" d="M99,31.31c-.34.63-1.53.65-2.67.05s-1.79-1.6-1.46-2.23,1.53-.66,2.67-.06S99.33,30.67,99,31.31Z"/><ellipse class="cls-16" cx="57.42" cy="27.2" rx="1.3" ry="2.33" transform="translate(6.53 65.24) rotate(-62.13)"/><path class="cls-17" d="M111.73,38.83c-9.64,4.84-22.23,6.57-32.28,7.47-7.26.64-15.19,1.37-22.3-.69S45,38.81,45.9,31.06A11.51,11.51,0,0,1,48,25.62a47.78,47.78,0,0,0-13.69,5.87,22.17,22.17,0,0,0-8.57,10.6A13.87,13.87,0,0,0,28,54.4c4.52,6.12,73.39,3.52,83.08-3.47,0,0,3.53-4.17,1.15-10.87A11,11,0,0,0,111.73,38.83Z"/><path class="cls-18" d="M70.11,48.61c-1.24,0-2.48,0-3.73,0-10,.16-20.31,1.06-30.22-.61-4.41-.74-7.74-1.89-9.7-4.41a10.68,10.68,0,0,0,2.29,10.16c2.47,2.94,24.78,3.51,45.43,2.38A31.68,31.68,0,0,1,70.11,48.61Z"/></g></g></svg>